
          <svg data-logo="logo" xmlns="http://www.w3.org/2000/svg" viewBox="0 0 192 43">
            <g id="logogram" transform="translate(0, 1) rotate(0)"><path d="M13.0832 0.429993L23.4173 9.25886C24.0309 9.78301 24.3845 10.5522 24.3845 11.3623V18.0162L14.0503 9.18733C13.4368 8.66319 13.0832 7.894 13.0832 7.08386V0.429993Z" fill="#7B19D8"/><path d="M13.0832 40.43L23.4173 31.6011C24.0309 31.077 24.3845 30.3078 24.3845 29.4977V22.8438L14.0503 31.6727C13.4368 32.1968 13.0832 32.966 13.0832 33.7761V40.43Z" fill="#7B19D8"/><path d="M0.754395 9.74034L10.948 18.4005C11.4422 18.8204 12.0681 19.0507 12.7147 19.0507H20.9354L10.7669 10.3925C10.2723 9.9714 9.64557 9.74034 8.99786 9.74034H0.754395Z" fill="#7B19D8"/><path d="M0.754395 31.1196L10.8853 22.4645C11.3804 22.0415 12.0086 21.8093 12.6578 21.8093H20.9599L10.7663 30.4694C10.2721 30.8893 9.64625 31.1196 8.99957 31.1196H0.754395Z" fill="#7B19D8"/><path d="M38.4256 0.429993L28.0914 9.25886C27.4779 9.78301 27.1243 10.5522 27.1243 11.3623V18.0162L37.4584 9.18733C38.072 8.66319 38.4256 7.894 38.4256 7.08386V0.429993Z" fill="#7B19D8"/><path d="M38.4256 40.43L28.0914 31.6011C27.4779 31.077 27.1243 30.3078 27.1243 29.4977V22.8438L37.4584 31.6727C38.072 32.1968 38.4256 32.966 38.4256 33.7761V40.43Z" fill="#7B19D8"/><path d="M50.7544 9.74034L40.5608 18.4005C40.0666 18.8204 39.4407 19.0507 38.7941 19.0507H30.5733L40.7419 10.3925C41.2364 9.9714 41.8632 9.74034 42.5109 9.74034H50.7544Z" fill="#7B19D8"/><path d="M50.7544 31.1196L40.6235 22.4645C40.1284 22.0415 39.5002 21.8093 38.851 21.8093H30.5489L40.7425 30.4694C41.2367 30.8893 41.8625 31.1196 42.5092 31.1196H50.7544Z" fill="#7B19D8"/></g>
            <g id="logotype" transform="translate(57, 7)"><path fill="#7B19D8" d="M15.49 4.43L22.31 4.43L31.17 29L24.94 29L17.73 7.54L20.04 7.54L12.79 29L6.59 29L15.49 4.43ZM10.41 24.66L11.88 20.07L25.32 20.07L26.83 24.66L10.41 24.66ZM38.62 29L32.70 29L32.70 9.47L38.62 9.47L38.62 29ZM38.62 20.60L37.71 20.60L38.62 14.19Q39.25 11.92 40.83 10.61Q42.40 9.29 44.85 9.29L44.85 9.29L44.85 15.45Q44.47 15.38 44.12 15.35Q43.77 15.31 43.41 15.31L43.41 15.31Q42.12 15.31 41.04 15.93Q39.95 16.54 39.28 17.71Q38.62 18.88 38.62 20.60L38.62 20.60ZM55.49 29.25L55.49 29.25Q52.27 29.25 50.55 27.48Q48.84 25.71 48.84 22.35L48.84 22.35L48.84 14.26L45.73 14.26L45.73 9.47L58.64 9.47L58.64 14.26L54.76 14.26L54.76 22.42Q54.76 23.26 55.30 23.73Q55.84 24.20 56.61 24.20L56.61 24.20Q56.96 24.20 57.26 24.12Q57.56 24.03 57.84 23.86L57.84 23.86L59.31 28.20Q58.47 28.65 57.54 28.95Q56.61 29.25 55.49 29.25ZM52.55 9.47L47.27 11.04L47.27 9.47Q48.04 9.47 48.53 8.98Q49.02 8.49 49.02 7.72L49.02 7.72L49.02 4.71L54.76 4.71L54.76 6.81Q54.76 7.30 54.51 7.88Q54.27 8.45 53.76 8.89Q53.25 9.33 52.55 9.47L52.55 9.47ZM61.41 29L61.41 4.43L67.32 4.43L67.32 29L61.41 29ZM76.70 29L76.70 4.43L82.62 4.43L82.62 29L76.70 29ZM66.62 18.85L66.62 14.09L77.58 14.09L77.58 18.85L66.62 18.85ZM91.51 29L85.63 29L85.63 9.47L91.51 9.47L91.51 29ZM88.60 7.40L88.60 7.40Q86.89 7.40 85.80 6.42Q84.72 5.44 84.72 3.97L84.72 3.97Q84.72 2.47 85.80 1.47Q86.89 0.47 88.60 0.47L88.60 0.47Q90.28 0.47 91.37 1.47Q92.45 2.47 92.45 3.97L92.45 3.97Q92.45 5.44 91.37 6.42Q90.28 7.40 88.60 7.40ZM92.70 9.47L99.00 9.47L103.34 23.50L107.61 9.47L113.87 9.47L106.94 29L99.66 29L92.70 9.47ZM124.72 29.25L124.72 29.25Q122.59 29.25 120.64 28.58Q118.70 27.91 117.21 26.64Q115.73 25.36 114.87 23.54Q114.01 21.72 114.01 19.38L114.01 19.38Q114.01 17.13 114.83 15.28Q115.66 13.42 117.07 12.06Q118.49 10.69 120.36 9.96Q122.24 9.22 124.34 9.22L124.34 9.22Q126.05 9.22 127.61 9.68Q129.17 10.13 130.41 11.01Q131.65 11.88 132.37 13.07Q133.09 14.26 133.09 15.73L133.09 15.73Q133.09 17.59 132.04 18.81Q130.99 20.04 129.29 20.74Q127.59 21.44 125.58 21.74Q123.57 22.04 121.61 22L121.61 22Q121.36 22 121.03 21.98Q120.70 21.96 120.42 21.95Q120.14 21.93 120.00 21.93L120.00 21.93Q120.21 22.73 120.89 23.38Q121.57 24.03 122.62 24.41Q123.67 24.80 124.79 24.80L124.79 24.80Q125.91 24.80 126.94 24.41Q127.98 24.03 128.82 23.43Q129.66 22.84 130.25 22.11L130.25 22.11L134.03 25.08Q132.98 26.48 131.48 27.41Q129.97 28.34 128.24 28.79Q126.51 29.25 124.72 29.25ZM121.64 18.11L121.64 18.11Q122.59 18.11 123.60 18.01Q124.62 17.91 125.47 17.64Q126.33 17.38 126.87 16.91Q127.42 16.43 127.42 15.70L127.42 15.70Q127.42 15.10 127.00 14.65Q126.58 14.19 125.88 13.95Q125.18 13.70 124.37 13.70L124.37 13.70Q122.97 13.70 121.92 14.37Q120.87 15.03 120.31 16.03Q119.75 17.03 119.68 18.04L119.68 18.04Q120.00 18.08 120.54 18.10Q121.08 18.11 121.64 18.11Z"/></g>
            
          </svg>
        